<mxfile host="app.diagrams.net" modified="2022-10-08T07:48:50.599Z" agent="5.0 (Windows NT 10.0; Win64; x64) AppleWebKit/537.36 (KHTML, like Gecko) Chrome/101.0.4951.64 Safari/537.36 Edg/101.0.1210.47" etag="TbeNCakN0r9Cgyz4TVTb" version="20.0.4" type="github">
  <diagram id="0bPlzSmWDDUH7Vepd_Dk" name="第 1 页">
    <mxGraphModel dx="981" dy="526" grid="1" gridSize="10" guides="1" tooltips="1" connect="1" arrows="1" fold="1" page="1" pageScale="1" pageWidth="827" pageHeight="1169" math="0" shadow="0">
      <root>
        <mxCell id="0" />
        <mxCell id="1" parent="0" />
        <mxCell id="o5SyvDvPzHcBgu_cNCDO-1" value="预审管理" style="shape=umlFrame;whiteSpace=wrap;html=1;gradientColor=none;" vertex="1" parent="1">
          <mxGeometry x="144" y="250" width="540" height="240" as="geometry" />
        </mxCell>
        <mxCell id="o5SyvDvPzHcBgu_cNCDO-2" value="&lt;b&gt;预审服务&lt;/b&gt;" style="ellipse;whiteSpace=wrap;html=1;fillColor=#dae8fc;strokeColor=#6c8ebf;" vertex="1" parent="1">
          <mxGeometry x="180" y="337.5" width="90" height="65" as="geometry" />
        </mxCell>
        <mxCell id="o5SyvDvPzHcBgu_cNCDO-3" value="Use" style="endArrow=open;endSize=12;dashed=1;html=1;rounded=0;" edge="1" parent="1">
          <mxGeometry width="160" relative="1" as="geometry">
            <mxPoint x="280" y="370" as="sourcePoint" />
            <mxPoint x="370" y="370" as="targetPoint" />
          </mxGeometry>
        </mxCell>
        <mxCell id="o5SyvDvPzHcBgu_cNCDO-4" value="&lt;b&gt;待核验主体&lt;/b&gt;" style="ellipse;whiteSpace=wrap;html=1;fillColor=#dae8fc;strokeColor=#6c8ebf;" vertex="1" parent="1">
          <mxGeometry x="370" y="280" width="100" height="50" as="geometry" />
        </mxCell>
        <mxCell id="o5SyvDvPzHcBgu_cNCDO-5" value="Use" style="endArrow=open;endSize=12;dashed=1;html=1;rounded=0;entryX=0;entryY=0.5;entryDx=0;entryDy=0;exitX=1;exitY=0.5;exitDx=0;exitDy=0;" edge="1" parent="1" source="o5SyvDvPzHcBgu_cNCDO-2" target="o5SyvDvPzHcBgu_cNCDO-4">
          <mxGeometry width="160" relative="1" as="geometry">
            <mxPoint x="260" y="350" as="sourcePoint" />
            <mxPoint x="420" y="350" as="targetPoint" />
          </mxGeometry>
        </mxCell>
        <mxCell id="o5SyvDvPzHcBgu_cNCDO-6" value="&lt;b&gt;未通过主体&lt;/b&gt;" style="ellipse;whiteSpace=wrap;html=1;fillColor=#dae8fc;strokeColor=#6c8ebf;" vertex="1" parent="1">
          <mxGeometry x="370" y="345" width="100" height="50" as="geometry" />
        </mxCell>
        <mxCell id="o5SyvDvPzHcBgu_cNCDO-7" value="&lt;b&gt;有效需求主体&lt;/b&gt;" style="ellipse;whiteSpace=wrap;html=1;fillColor=#dae8fc;strokeColor=#6c8ebf;" vertex="1" parent="1">
          <mxGeometry x="370" y="410" width="100" height="50" as="geometry" />
        </mxCell>
        <mxCell id="o5SyvDvPzHcBgu_cNCDO-8" value="Use" style="endArrow=open;endSize=12;dashed=1;html=1;rounded=0;exitX=1;exitY=0.5;exitDx=0;exitDy=0;entryX=0;entryY=0.5;entryDx=0;entryDy=0;" edge="1" parent="1" source="o5SyvDvPzHcBgu_cNCDO-2" target="o5SyvDvPzHcBgu_cNCDO-7">
          <mxGeometry width="160" relative="1" as="geometry">
            <mxPoint x="250" y="410" as="sourcePoint" />
            <mxPoint x="410" y="410" as="targetPoint" />
          </mxGeometry>
        </mxCell>
        <mxCell id="o5SyvDvPzHcBgu_cNCDO-9" value="&lt;b&gt;预审服务&lt;br&gt;&lt;/b&gt;" style="shape=umlActor;verticalLabelPosition=bottom;verticalAlign=top;html=1;strokeColor=#000000;fillColor=#FFE599;gradientColor=none;gradientDirection=east;" vertex="1" parent="1">
          <mxGeometry x="600" y="345" width="40" height="65" as="geometry" />
        </mxCell>
        <mxCell id="o5SyvDvPzHcBgu_cNCDO-14" value="Extends" style="endArrow=block;endSize=16;endFill=0;html=1;rounded=0;" edge="1" parent="1">
          <mxGeometry width="160" relative="1" as="geometry">
            <mxPoint x="470" y="304.66" as="sourcePoint" />
            <mxPoint x="580" y="360" as="targetPoint" />
          </mxGeometry>
        </mxCell>
        <mxCell id="o5SyvDvPzHcBgu_cNCDO-15" value="Extends" style="endArrow=block;endSize=16;endFill=0;html=1;rounded=0;exitX=1;exitY=0.5;exitDx=0;exitDy=0;" edge="1" parent="1" source="o5SyvDvPzHcBgu_cNCDO-6">
          <mxGeometry width="160" relative="1" as="geometry">
            <mxPoint x="480" y="314.6600000000001" as="sourcePoint" />
            <mxPoint x="580" y="380" as="targetPoint" />
          </mxGeometry>
        </mxCell>
        <mxCell id="o5SyvDvPzHcBgu_cNCDO-16" value="Extends" style="endArrow=block;endSize=16;endFill=0;html=1;rounded=0;exitX=1;exitY=0.5;exitDx=0;exitDy=0;" edge="1" parent="1" source="o5SyvDvPzHcBgu_cNCDO-7">
          <mxGeometry width="160" relative="1" as="geometry">
            <mxPoint x="480" y="380.0000000000001" as="sourcePoint" />
            <mxPoint x="590" y="390.0000000000001" as="targetPoint" />
          </mxGeometry>
        </mxCell>
      </root>
    </mxGraphModel>
  </diagram>
</mxfile>
